#!OML:ASF E:\Steps\Project 1\Capture day 1\Session 2\Subject.ASF
:FULLY-SPECIFIED
:DEGREES
877
root 9.40051 25.1622 -14.8758 -153.447 -0.169603 178.078
lowerback -30.5374 -1.12103 -6.53905
upperback -2.23283 -0.0362754 -0.785948
thorax 13.4532 -0.746943 2.58534
lowerneck -0.427653 -2.06559 -3.3542
upperneck 0.585203 -3.0751 9.92138
head 0.489152 -1.61778 3.79008
rclavicle -3.42904e-015 1.47101e-014
rhumerus -32.7598 -16.9871 -80.9829
rradius 29.8266
rwrist -1.08107
rhand -7.32429 -52.0499
rfingers 7.12502
rthumb 18.5589 -81.1846
lclavicle -3.42904e-015 1.47101e-014
lhumerus -28.6853 7.11032 80.9501
lradius 22.9906
lwrist -2.92892
lhand -20.7906 -12.395
lfingers 7.12502
lthumb 5.57649 17.5116
rfemur -22.4839 7.07381 17.688
rtibia 4.21457
rfoot -17.2464 -7.72558
rtoes -24.5492
lfemur -23.7027 -8.76371 -21.1456
ltibia 7.96996
lfoot 351.965 2.73163
ltoes -37.6774
878
root 9.4025 25.158 -14.8852 -153.682 -0.284452 178.388
lowerback -30.368 -1.0897 -6.22354
upperback -2.17253 -0.101617 -0.674563
thorax 13.461 -0.75124 2.51564
lowerneck -0.298964 -1.89184 -3.26679
upperneck 0.257809 -2.81688 9.88003
head 0.340277 -1.49937 3.76442
rclavicle 4.87022e-015 -2.14687e-014
rhumerus -32.7074 -16.8389 -81.096
rradius 29.9432
rwrist -1.22217
rhand -7.29432 -51.9867
rfingers 7.12502
rthumb 18.5877 -81.1186
lclavicle 4.87022e-015 -2.14687e-014
lhumerus -28.4747 6.71672 81.2405
lradius 23.6021
lwrist -2.90643
lhand -20.8296 -12.065
lfingers 7.12502
lthumb 5.5389 17.8427
rfemur -22.074 7.24568 18.1179
rtibia 3.97669
rfoot -17.1611 -7.81513
rtoes -24.5151
lfemur -23.3929 -8.67513 -20.7986
ltibia 7.91022
lfoot 351.957 2.72433
ltoes -37.6972
879
root 9.40211 25.1588 -14.8959 -153.806 -0.246417 178.468
lowerback -30.315 -1.06651 -6.14535
upperback -2.11533 -0.0907694 -0.624771
thorax 13.5049 -0.738938 2.53376
lowerneck -1.19881 -1.51228 -2.99915
upperneck 0.101811 -2.3201 10.0983
head 0.413121 -1.24298 3.7859
rclavicle 2.5842e-015 -7.95139e-015
rhumerus -32.5491 -16.6767 -81.1859
rradius 29.9788
rwrist -1.34514
rhand -7.20621 -52.1376
rfingers 7.12502
rthumb 18.6725 -81.2614
lclavicle 2.5842e-015 -7.95139e-015
lhumerus -28.2851 6.15155 81.6311
lradius 24.3447
lwrist -2.45542
lhand -20.6528 -11.5004
lfingers 7.12502
lthumb 5.70958 18.4027
rfemur -21.8654 7.23858 18.2471
rtibia 3.90542
rfoot -17.2218 -7.70503
rtoes -24.3781
lfemur -23.1905 -8.55247 -20.7693
ltibia 7.87336
lfoot 351.974 2.68167
ltoes -38.2055
880
root 9.40477 25.159 -14.9059 -153.835 -0.228195 178.461
lowerback -30.3383 -1.08883 -6.19027
upperback -2.11293 -0.106338 -0.604055
thorax 13.5187 -0.74963 2.57394
lowerneck -1.36083 -1.35267 -2.84642
upperneck -0.158813 -2.09177 10.0587
head 0.33932 -1.13375 3.74432
rclavicle -9.93923e-016 -3.97569e-016
rhumerus -32.5043 -16.3784 -81.3517
rradius 30.0225
rwrist -1.49221
rhand -7.24986 -52.3833
rfingers 7.12502
rthumb 18.6305 -81.5112
lclavicle -9.93923e-016 -3.97569e-016
lhumerus -28.0973 5.66662 81.9552
lradius 24.9692
lwrist -2.02171
lhand -20.5949 -11.1476
lfingers 7.12502
lthumb 5.7655 18.754
rfemur -21.8217 7.35996 18.2297
rtibia 3.98044
rfoot -17.3508 -7.80233
rtoes -24.0815
lfemur -23.1311 -8.51609 -20.7871
ltibia 7.90125
lfoot 351.984 2.67277
ltoes -38.5107
881
root 9.40842 25.1585 -14.9142 -153.772 -0.184436 178.328
lowerback -30.3982 -1.13304 -6.36282
upperback -2.15825 -0.112486 -0.639745
thorax 13.4898 -0.765712 2.6236
lowerneck -1.30177 -1.6618 -2.96069
upperneck -0.186403 -2.50169 10.093
head 0.351844 -1.33917 3.77436
rclavicle -7.20594e-015 2.74323e-014
rhumerus -32.5684 -16.1096 -81.5219
rradius 30.2487
rwrist -1.55105
rhand -7.14213 -52.7262
rfingers 7.12502
rthumb 18.7341 -81.8441
lclavicle -7.20594e-015 2.74323e-014
lhumerus -27.9209 5.21092 82.2043
lradius 25.4103
lwrist -1.72748
lhand -20.8569 -11.4378
lfingers 7.12502
lthumb 5.51255 18.4705
rfemur -21.866 7.46023 18.042
rtibia 4.0806
rfoot -17.0718 -7.91963
rtoes -25.0881
lfemur -23.1939 -8.60303 -20.9196
ltibia 7.98411
lfoot 351.915 2.75366
ltoes -38.3824
